<?xml version="1.0" encoding="utf-8"?>
<!-- Generator: Adobe Illustrator 16.0.0, SVG Export Plug-In . SVG Version: 6.00 Build 0)  -->
<!DOCTYPE svg PUBLIC "-//W3C//DTD SVG 1.0//EN" "http://www.w3.org/TR/2001/REC-SVG-20010904/DTD/svg10.dtd">
<svg version="1.0" id="Layer_1" xmlns="http://www.w3.org/2000/svg" xmlns:xlink="http://www.w3.org/1999/xlink" x="0px" y="0px"
	 width="100px" height="100px" viewBox="0 0 100 100" enable-background="new 0 0 100 100" xml:space="preserve">
<path d="M76.67,40l-0.003,0.003V40H47.302C43.841,34.028,37.399,30,30,30c-11.048,0-20,8.957-20,20c0,11.042,8.952,20,20,20
	c7.399,0,13.841-4.03,17.302-10h9.365v6.667h6.666V60H70v6.667h6.667V60h6.666v6.667H90V53.334C89.997,45.975,84.033,40,76.67,40z
	 M30,63.333c-7.363,0-13.333-5.973-13.333-13.333c0-7.362,5.97-13.333,13.333-13.333S43.333,42.638,43.333,50
	C43.333,57.36,37.363,63.333,30,63.333z M49.7,53.334C49.883,52.246,50,51.138,50,50s-0.117-2.246-0.3-3.333h26.967l0.003,0.003
	c3.682,0,6.66,2.983,6.663,6.664H49.7z"/>
<circle cx="26.667" cy="50" r="5"/>
</svg>
